<svg xmlns="http://www.w3.org/2000/svg" xmlns:xlink="http://www.w3.org/1999/xlink" width="250" zoomAndPan="magnify" viewBox="0 0 187.5 187.499992" height="250" preserveAspectRatio="xMidYMid meet" version="1.0"><defs><g/><clipPath id="id1"><path d="M 32 10.402344 L 162 10.402344 L 162 130.402344 L 32 130.402344 Z M 32 10.402344 " clip-rule="nonzero"/></clipPath></defs><g clip-path="url(#id1)"><path fill="#f16736" d="M 40.03125 57.714844 L 40.03125 25.589844 C 40.03125 21.453125 43.433594 18.050781 47.566406 18.050781 L 71.191406 18.050781 C 79.253906 18.050781 78.007812 10.421875 71.714844 10.421875 L 47.566406 10.421875 C 39.207031 10.421875 32.390625 17.242188 32.390625 25.609375 L 32.390625 91.28125 C 32.390625 99.644531 39.207031 106.464844 47.566406 106.464844 L 70.140625 106.464844 L 80.96875 122.757812 C 82.828125 125.5625 85.105469 129.878906 88.75 130.386719 C 92.695312 130.929688 96.25 126.738281 98.773438 124.214844 L 150.664062 73.8125 L 153.835938 91.050781 C 154.238281 93.261719 156.359375 94.734375 158.570312 94.332031 C 160.777344 93.929688 162.25 91.804688 161.847656 89.597656 L 157.429688 65.574219 C 157.21875 63.660156 155.675781 62.117188 153.695312 61.960938 L 128.722656 59.925781 C 126.480469 59.75 124.519531 61.433594 124.34375 63.679688 C 124.167969 65.921875 125.851562 67.886719 128.09375 68.0625 L 144.285156 69.378906 L 93.394531 118.8125 C 92.78125 119.425781 91.046875 121.25 89.835938 122.265625 C 88.960938 121.109375 87.785156 119.199219 87.347656 118.53125 L 74.257812 98.839844 L 47.601562 98.839844 C 43.464844 98.839844 40.066406 95.4375 40.066406 91.296875 L 40.066406 57.75 Z M 40.03125 57.714844 " fill-opacity="1" fill-rule="evenodd"/></g><path fill="#545454" d="M 57.714844 62.277344 C 59.816406 62.277344 61.535156 63.992188 61.535156 66.097656 L 61.535156 79.777344 C 61.535156 81.882812 59.816406 83.597656 57.714844 83.597656 C 55.613281 83.597656 53.894531 81.882812 53.894531 79.777344 L 53.894531 66.097656 C 53.894531 63.992188 55.613281 62.277344 57.714844 62.277344 Z M 57.714844 62.277344 " fill-opacity="1" fill-rule="evenodd"/><path fill="#545454" d="M 75.695312 48.019531 C 77.796875 48.019531 79.515625 49.738281 79.515625 51.839844 L 79.515625 79.777344 C 79.515625 81.882812 77.796875 83.597656 75.695312 83.597656 C 73.589844 83.597656 71.875 81.882812 71.875 79.777344 L 71.875 51.839844 C 71.875 49.738281 73.589844 48.019531 75.695312 48.019531 Z M 75.695312 48.019531 " fill-opacity="1" fill-rule="evenodd"/><path fill="#545454" d="M 93.65625 32.886719 C 95.761719 32.886719 97.476562 34.605469 97.476562 36.707031 L 97.476562 79.777344 C 97.476562 81.882812 95.761719 83.597656 93.65625 83.597656 C 91.554688 83.597656 89.835938 81.882812 89.835938 79.777344 L 89.835938 36.707031 C 89.835938 34.605469 91.554688 32.886719 93.65625 32.886719 Z M 93.65625 32.886719 " fill-opacity="1" fill-rule="evenodd"/><path fill="#545454" d="M 111.636719 22.222656 C 113.742188 22.222656 115.457031 23.941406 115.457031 26.046875 L 115.457031 79.777344 C 115.457031 81.882812 113.742188 83.597656 111.636719 83.597656 C 109.535156 83.597656 107.816406 81.882812 107.816406 79.777344 L 107.816406 26.046875 C 107.816406 23.941406 109.535156 22.222656 111.636719 22.222656 Z M 111.636719 22.222656 " fill-opacity="1" fill-rule="evenodd"/><g fill="#f16736" fill-opacity="1"><g transform="translate(22.177836, 175.015385)"><g><path d="M 10.921875 -11.75 L 10.921875 -16.453125 L 19.375 -16.453125 L 19.375 -5.578125 C 19.375 -1.554688 17.488281 0.453125 13.71875 0.453125 L 7.953125 0.453125 C 4.171875 0.453125 2.28125 -1.554688 2.28125 -5.578125 L 2.28125 -24 C 2.28125 -28.019531 4.171875 -30.03125 7.953125 -30.03125 L 13.71875 -30.03125 C 17.488281 -30.03125 19.375 -28.019531 19.375 -24 L 19.375 -21.203125 L 13.296875 -21.203125 L 13.296875 -24.765625 C 13.296875 -25.015625 13.210938 -25.226562 13.046875 -25.40625 C 12.878906 -25.59375 12.675781 -25.6875 12.4375 -25.6875 L 9.546875 -25.6875 C 9.304688 -25.6875 9.101562 -25.59375 8.9375 -25.40625 C 8.769531 -25.226562 8.6875 -25.015625 8.6875 -24.765625 L 8.6875 -4.84375 C 8.6875 -4.601562 8.769531 -4.390625 8.9375 -4.203125 C 9.101562 -4.023438 9.304688 -3.9375 9.546875 -3.9375 L 12.4375 -3.9375 C 12.675781 -3.9375 12.878906 -4.023438 13.046875 -4.203125 C 13.210938 -4.390625 13.296875 -4.601562 13.296875 -4.84375 L 13.296875 -11.75 Z M 10.921875 -11.75 "/></g></g></g><g fill="#f16736" fill-opacity="1"><g transform="translate(42.790738, 175.015385)"><g><path d="M 8.6875 -12.109375 L 8.6875 0 L 2.28125 0 L 2.28125 -29.5625 L 13.671875 -29.5625 C 17.441406 -29.5625 19.328125 -27.550781 19.328125 -23.53125 L 19.328125 -20.109375 C 19.328125 -17.671875 18.460938 -16.117188 16.734375 -15.453125 C 18.253906 -14.898438 19.015625 -13.648438 19.015625 -11.703125 L 19.015625 0 L 12.609375 0 L 12.609375 -11.203125 C 12.609375 -11.804688 12.320312 -12.109375 11.75 -12.109375 Z M 8.6875 -25.234375 L 8.6875 -16.59375 L 12.0625 -16.59375 C 12.3125 -16.59375 12.519531 -16.679688 12.6875 -16.859375 C 12.851562 -17.046875 12.9375 -17.257812 12.9375 -17.5 L 12.9375 -24.3125 C 12.9375 -24.5625 12.851562 -24.773438 12.6875 -24.953125 C 12.519531 -25.140625 12.3125 -25.234375 12.0625 -25.234375 Z M 8.6875 -25.234375 "/></g></g></g><g fill="#f16736" fill-opacity="1"><g transform="translate(63.952102, 175.015385)"><g><path d="M 14.03125 -30.03125 C 17.8125 -30.03125 19.703125 -28.019531 19.703125 -24 L 19.703125 0 L 13.296875 0 L 13.296875 -9.921875 L 8.6875 -9.921875 L 8.6875 0 L 2.28125 0 L 2.28125 -24 C 2.28125 -28.019531 4.171875 -30.03125 7.953125 -30.03125 Z M 8.6875 -14.859375 L 13.296875 -14.859375 L 13.296875 -24.765625 C 13.296875 -25.015625 13.210938 -25.226562 13.046875 -25.40625 C 12.878906 -25.59375 12.675781 -25.6875 12.4375 -25.6875 L 9.546875 -25.6875 C 9.304688 -25.6875 9.101562 -25.59375 8.9375 -25.40625 C 8.769531 -25.226562 8.6875 -25.015625 8.6875 -24.765625 Z M 8.6875 -14.859375 "/></g></g></g><g fill="#f16736" fill-opacity="1"><g transform="translate(86.118974, 175.015385)"><g><path d="M 13.796875 -29.5625 C 17.578125 -29.5625 19.46875 -27.550781 19.46875 -23.53125 L 19.46875 -17.640625 C 19.46875 -13.617188 17.578125 -11.609375 13.796875 -11.609375 L 8.640625 -11.609375 L 8.640625 0 L 2.234375 0 L 2.234375 -29.5625 Z M 13.078125 -16.90625 L 13.078125 -24.265625 C 13.078125 -24.515625 12.988281 -24.726562 12.8125 -24.90625 C 12.644531 -25.09375 12.441406 -25.1875 12.203125 -25.1875 L 8.640625 -25.1875 L 8.640625 -16 L 12.203125 -16 C 12.441406 -16 12.644531 -16.085938 12.8125 -16.265625 C 12.988281 -16.453125 13.078125 -16.664062 13.078125 -16.90625 Z M 13.078125 -16.90625 "/></g></g></g><g fill="#f16736" fill-opacity="1"><g transform="translate(106.503346, 175.015385)"><g><path d="M 8.6875 -11.609375 L 8.6875 0 L 2.28125 0 L 2.28125 -29.5625 L 8.6875 -29.5625 L 8.6875 -17.1875 L 13.75 -17.1875 L 13.75 -29.5625 L 20.15625 -29.5625 L 20.15625 0 L 13.75 0 L 13.75 -11.609375 Z M 8.6875 -11.609375 "/></g></g></g><g fill="#f16736" fill-opacity="1"><g transform="translate(128.944435, 175.015385)"><g><path d="M 19.703125 -24 L 19.703125 -5.578125 C 19.703125 -1.554688 17.8125 0.453125 14.03125 0.453125 L 7.953125 0.453125 C 4.171875 0.453125 2.28125 -1.554688 2.28125 -5.578125 L 2.28125 -24 C 2.28125 -28.019531 4.171875 -30.03125 7.953125 -30.03125 L 14.03125 -30.03125 C 17.8125 -30.03125 19.703125 -28.019531 19.703125 -24 Z M 13.296875 -4.84375 L 13.296875 -24.765625 C 13.296875 -25.015625 13.210938 -25.226562 13.046875 -25.40625 C 12.878906 -25.59375 12.675781 -25.6875 12.4375 -25.6875 L 9.546875 -25.6875 C 9.304688 -25.6875 9.101562 -25.59375 8.9375 -25.40625 C 8.769531 -25.226562 8.6875 -25.015625 8.6875 -24.765625 L 8.6875 -4.84375 C 8.6875 -4.601562 8.769531 -4.390625 8.9375 -4.203125 C 9.101562 -4.023438 9.304688 -3.9375 9.546875 -3.9375 L 12.4375 -3.9375 C 12.675781 -3.9375 12.878906 -4.023438 13.046875 -4.203125 C 13.210938 -4.390625 13.296875 -4.601562 13.296875 -4.84375 Z M 13.296875 -4.84375 "/></g></g></g><g fill="#f16736" fill-opacity="1"><g transform="translate(151.065594, 175.015385)"><g><path d="M 18.6875 -21.796875 L 12.609375 -21.796875 L 12.609375 -24.125 C 12.609375 -24.375 12.523438 -24.585938 12.359375 -24.765625 C 12.191406 -24.953125 11.988281 -25.046875 11.75 -25.046875 L 9.234375 -25.046875 C 8.984375 -25.046875 8.773438 -24.953125 8.609375 -24.765625 C 8.441406 -24.585938 8.359375 -24.375 8.359375 -24.125 L 8.359375 -18.875 C 8.359375 -18.632812 8.441406 -18.421875 8.609375 -18.234375 C 8.773438 -18.054688 8.984375 -17.96875 9.234375 -17.96875 L 13.34375 -17.96875 C 17.125 -17.90625 19.015625 -15.890625 19.015625 -11.921875 L 19.015625 -5.578125 C 19.015625 -1.554688 17.125 0.453125 13.34375 0.453125 L 7.953125 0.453125 C 4.171875 0.453125 2.28125 -1.554688 2.28125 -5.578125 L 2.28125 -8.640625 L 8.359375 -8.640625 L 8.359375 -5.34375 C 8.359375 -5.101562 8.441406 -4.890625 8.609375 -4.703125 C 8.773438 -4.523438 8.984375 -4.4375 9.234375 -4.4375 L 12.0625 -4.4375 C 12.3125 -4.4375 12.519531 -4.523438 12.6875 -4.703125 C 12.851562 -4.890625 12.9375 -5.101562 12.9375 -5.34375 L 12.9375 -11.15625 C 12.9375 -11.394531 12.851562 -11.601562 12.6875 -11.78125 C 12.519531 -11.96875 12.3125 -12.0625 12.0625 -12.0625 L 7.953125 -12.0625 C 4.171875 -12.0625 2.28125 -14.070312 2.28125 -18.09375 L 2.28125 -24 C 2.28125 -28.019531 4.171875 -30.03125 7.953125 -30.03125 L 13.03125 -30.03125 C 16.800781 -30.03125 18.6875 -28.019531 18.6875 -24 Z M 18.6875 -21.796875 "/></g></g></g></svg>