<svg xmlns="http://www.w3.org/2000/svg" xmlns:xlink="http://www.w3.org/1999/xlink" width="500" zoomAndPan="magnify" viewBox="0 0 375 374.999991" height="500" preserveAspectRatio="xMidYMid meet" version="1.0"><defs><g/><clipPath id="id1"><path d="M 130.160156 100.707031 L 244.910156 100.707031 L 244.910156 206.457031 L 130.160156 206.457031 Z M 130.160156 100.707031 " clip-rule="nonzero"/></clipPath></defs><g clip-path="url(#id1)"><path fill="#f16736" d="M 137.320312 142.402344 L 137.320312 114.089844 C 137.320312 110.441406 140.308594 107.445312 143.945312 107.445312 L 164.714844 107.445312 C 171.800781 107.445312 170.707031 100.722656 165.175781 100.722656 L 143.945312 100.722656 C 136.59375 100.722656 130.601562 106.734375 130.601562 114.105469 L 130.601562 171.980469 C 130.601562 179.351562 136.59375 185.363281 143.945312 185.363281 L 163.789062 185.363281 L 173.3125 199.71875 C 174.945312 202.191406 176.949219 205.992188 180.152344 206.441406 C 183.621094 206.921875 186.75 203.226562 188.96875 201 L 234.59375 156.585938 L 237.378906 171.777344 C 237.734375 173.726562 239.597656 175.023438 241.542969 174.667969 C 243.484375 174.3125 244.777344 172.441406 244.421875 170.496094 L 240.539062 149.324219 C 240.355469 147.640625 239 146.28125 237.257812 146.140625 L 215.300781 144.347656 C 213.328125 144.195312 211.601562 145.675781 211.449219 147.65625 C 211.292969 149.632812 212.773438 151.363281 214.746094 151.519531 L 228.984375 152.675781 L 184.238281 196.242188 C 183.699219 196.78125 182.171875 198.390625 181.109375 199.285156 C 180.339844 198.265625 179.304688 196.582031 178.921875 195.996094 L 167.410156 178.640625 L 143.976562 178.640625 C 140.339844 178.640625 137.347656 175.640625 137.347656 171.996094 L 137.347656 142.433594 Z M 137.320312 142.402344 " fill-opacity="1" fill-rule="evenodd"/></g><path fill="#d9d9d9" d="M 152.867188 146.417969 C 154.714844 146.417969 156.226562 147.933594 156.226562 149.789062 L 156.226562 161.839844 C 156.226562 163.695312 154.714844 165.210938 152.867188 165.210938 C 151.015625 165.210938 149.507812 163.695312 149.507812 161.839844 L 149.507812 149.789062 C 149.507812 147.933594 151.015625 146.417969 152.867188 146.417969 Z M 152.867188 146.417969 " fill-opacity="1" fill-rule="evenodd"/><path fill="#d9d9d9" d="M 168.675781 133.855469 C 170.523438 133.855469 172.035156 135.371094 172.035156 137.222656 L 172.035156 161.839844 C 172.035156 163.695312 170.523438 165.210938 168.675781 165.210938 C 166.824219 165.210938 165.316406 163.695312 165.316406 161.839844 L 165.316406 137.222656 C 165.316406 135.371094 166.824219 133.855469 168.675781 133.855469 Z M 168.675781 133.855469 " fill-opacity="1" fill-rule="evenodd"/><path fill="#d9d9d9" d="M 184.46875 120.519531 C 186.316406 120.519531 187.828125 122.03125 187.828125 123.886719 L 187.828125 161.839844 C 187.828125 163.695312 186.316406 165.210938 184.46875 165.210938 C 182.621094 165.210938 181.109375 163.695312 181.109375 161.839844 L 181.109375 123.886719 C 181.109375 122.03125 182.621094 120.519531 184.46875 120.519531 Z M 184.46875 120.519531 " fill-opacity="1" fill-rule="evenodd"/><path fill="#d9d9d9" d="M 200.277344 111.121094 C 202.125 111.121094 203.636719 112.636719 203.636719 114.492188 L 203.636719 161.839844 C 203.636719 163.695312 202.125 165.210938 200.277344 165.210938 C 198.429688 165.210938 196.917969 163.695312 196.917969 161.839844 L 196.917969 114.492188 C 196.917969 112.636719 198.429688 111.121094 200.277344 111.121094 Z M 200.277344 111.121094 " fill-opacity="1" fill-rule="evenodd"/><g fill="#f16736" fill-opacity="1"><g transform="translate(121.614086, 245.474602)"><g><path d="M 9.609375 -10.328125 L 9.609375 -14.46875 L 17.046875 -14.46875 L 17.046875 -4.90625 C 17.046875 -1.363281 15.382812 0.40625 12.0625 0.40625 L 7 0.40625 C 3.675781 0.40625 2.015625 -1.363281 2.015625 -4.90625 L 2.015625 -21.109375 C 2.015625 -24.640625 3.675781 -26.40625 7 -26.40625 L 12.0625 -26.40625 C 15.382812 -26.40625 17.046875 -24.640625 17.046875 -21.109375 L 17.046875 -18.65625 L 11.703125 -18.65625 L 11.703125 -21.796875 C 11.703125 -22.003906 11.625 -22.1875 11.46875 -22.34375 C 11.320312 -22.507812 11.144531 -22.59375 10.9375 -22.59375 L 8.40625 -22.59375 C 8.1875 -22.59375 8.003906 -22.507812 7.859375 -22.34375 C 7.710938 -22.1875 7.640625 -22.003906 7.640625 -21.796875 L 7.640625 -4.265625 C 7.640625 -4.046875 7.710938 -3.851562 7.859375 -3.6875 C 8.003906 -3.53125 8.1875 -3.453125 8.40625 -3.453125 L 10.9375 -3.453125 C 11.144531 -3.453125 11.320312 -3.53125 11.46875 -3.6875 C 11.625 -3.851562 11.703125 -4.046875 11.703125 -4.265625 L 11.703125 -10.328125 Z M 9.609375 -10.328125 "/></g></g></g><g fill="#f16736" fill-opacity="1"><g transform="translate(139.742133, 245.474602)"><g><path d="M 7.640625 -10.65625 L 7.640625 0 L 2.015625 0 L 2.015625 -26.015625 L 12.015625 -26.015625 C 15.335938 -26.015625 17 -24.242188 17 -20.703125 L 17 -17.6875 C 17 -15.539062 16.238281 -14.175781 14.71875 -13.59375 C 16.050781 -13.101562 16.71875 -12.003906 16.71875 -10.296875 L 16.71875 0 L 11.09375 0 L 11.09375 -9.84375 C 11.09375 -10.382812 10.835938 -10.65625 10.328125 -10.65625 Z M 7.640625 -22.1875 L 7.640625 -14.59375 L 10.609375 -14.59375 C 10.828125 -14.59375 11.007812 -14.671875 11.15625 -14.828125 C 11.300781 -14.992188 11.375 -15.179688 11.375 -15.390625 L 11.375 -21.390625 C 11.375 -21.597656 11.300781 -21.78125 11.15625 -21.9375 C 11.007812 -22.101562 10.828125 -22.1875 10.609375 -22.1875 Z M 7.640625 -22.1875 "/></g></g></g><g fill="#f16736" fill-opacity="1"><g transform="translate(158.352526, 245.474602)"><g><path d="M 12.34375 -26.40625 C 15.664062 -26.40625 17.328125 -24.640625 17.328125 -21.109375 L 17.328125 0 L 11.703125 0 L 11.703125 -8.71875 L 7.640625 -8.71875 L 7.640625 0 L 2.015625 0 L 2.015625 -21.109375 C 2.015625 -24.640625 3.675781 -26.40625 7 -26.40625 Z M 7.640625 -13.0625 L 11.703125 -13.0625 L 11.703125 -21.796875 C 11.703125 -22.003906 11.625 -22.1875 11.46875 -22.34375 C 11.320312 -22.507812 11.144531 -22.59375 10.9375 -22.59375 L 8.40625 -22.59375 C 8.1875 -22.59375 8.003906 -22.507812 7.859375 -22.34375 C 7.710938 -22.1875 7.640625 -22.003906 7.640625 -21.796875 Z M 7.640625 -13.0625 "/></g></g></g><g fill="#f16736" fill-opacity="1"><g transform="translate(177.847214, 245.474602)"><g><path d="M 12.140625 -26.015625 C 15.460938 -26.015625 17.125 -24.242188 17.125 -20.703125 L 17.125 -15.515625 C 17.125 -11.984375 15.460938 -10.21875 12.140625 -10.21875 L 7.59375 -10.21875 L 7.59375 0 L 1.96875 0 L 1.96875 -26.015625 Z M 11.5 -14.875 L 11.5 -21.34375 C 11.5 -21.5625 11.425781 -21.75 11.28125 -21.90625 C 11.132812 -22.070312 10.953125 -22.15625 10.734375 -22.15625 L 7.59375 -22.15625 L 7.59375 -14.078125 L 10.734375 -14.078125 C 10.953125 -14.078125 11.132812 -14.15625 11.28125 -14.3125 C 11.425781 -14.46875 11.5 -14.65625 11.5 -14.875 Z M 11.5 -14.875 "/></g></g></g><g fill="#f16736" fill-opacity="1"><g transform="translate(195.77428, 245.474602)"><g><path d="M 7.640625 -10.21875 L 7.640625 0 L 2.015625 0 L 2.015625 -26.015625 L 7.640625 -26.015625 L 7.640625 -15.109375 L 12.09375 -15.109375 L 12.09375 -26.015625 L 17.734375 -26.015625 L 17.734375 0 L 12.09375 0 L 12.09375 -10.21875 Z M 7.640625 -10.21875 "/></g></g></g><g fill="#f16736" fill-opacity="1"><g transform="translate(215.51013, 245.474602)"><g><path d="M 17.328125 -21.109375 L 17.328125 -4.90625 C 17.328125 -1.363281 15.664062 0.40625 12.34375 0.40625 L 7 0.40625 C 3.675781 0.40625 2.015625 -1.363281 2.015625 -4.90625 L 2.015625 -21.109375 C 2.015625 -24.640625 3.675781 -26.40625 7 -26.40625 L 12.34375 -26.40625 C 15.664062 -26.40625 17.328125 -24.640625 17.328125 -21.109375 Z M 11.703125 -4.265625 L 11.703125 -21.796875 C 11.703125 -22.003906 11.625 -22.1875 11.46875 -22.34375 C 11.320312 -22.507812 11.144531 -22.59375 10.9375 -22.59375 L 8.40625 -22.59375 C 8.1875 -22.59375 8.003906 -22.507812 7.859375 -22.34375 C 7.710938 -22.1875 7.640625 -22.003906 7.640625 -21.796875 L 7.640625 -4.265625 C 7.640625 -4.046875 7.710938 -3.851562 7.859375 -3.6875 C 8.003906 -3.53125 8.1875 -3.453125 8.40625 -3.453125 L 10.9375 -3.453125 C 11.144531 -3.453125 11.320312 -3.53125 11.46875 -3.6875 C 11.625 -3.851562 11.703125 -4.046875 11.703125 -4.265625 Z M 11.703125 -4.265625 "/></g></g></g><g fill="#f16736" fill-opacity="1"><g transform="translate(234.964616, 245.474602)"><g><path d="M 16.4375 -19.171875 L 11.09375 -19.171875 L 11.09375 -21.234375 C 11.09375 -21.441406 11.019531 -21.625 10.875 -21.78125 C 10.726562 -21.945312 10.546875 -22.03125 10.328125 -22.03125 L 8.125 -22.03125 C 7.90625 -22.03125 7.722656 -21.945312 7.578125 -21.78125 C 7.429688 -21.625 7.359375 -21.441406 7.359375 -21.234375 L 7.359375 -16.609375 C 7.359375 -16.390625 7.429688 -16.195312 7.578125 -16.03125 C 7.722656 -15.875 7.90625 -15.796875 8.125 -15.796875 L 11.734375 -15.796875 C 15.054688 -15.742188 16.71875 -13.976562 16.71875 -10.5 L 16.71875 -4.90625 C 16.71875 -1.363281 15.054688 0.40625 11.734375 0.40625 L 7 0.40625 C 3.675781 0.40625 2.015625 -1.363281 2.015625 -4.90625 L 2.015625 -7.59375 L 7.359375 -7.59375 L 7.359375 -4.703125 C 7.359375 -4.484375 7.429688 -4.296875 7.578125 -4.140625 C 7.722656 -3.984375 7.90625 -3.90625 8.125 -3.90625 L 10.609375 -3.90625 C 10.828125 -3.90625 11.007812 -3.984375 11.15625 -4.140625 C 11.300781 -4.296875 11.375 -4.484375 11.375 -4.703125 L 11.375 -9.8125 C 11.375 -10.019531 11.300781 -10.203125 11.15625 -10.359375 C 11.007812 -10.523438 10.828125 -10.609375 10.609375 -10.609375 L 7 -10.609375 C 3.675781 -10.609375 2.015625 -12.378906 2.015625 -15.921875 L 2.015625 -21.109375 C 2.015625 -24.640625 3.675781 -26.40625 7 -26.40625 L 11.453125 -26.40625 C 14.773438 -26.40625 16.4375 -24.640625 16.4375 -21.109375 Z M 16.4375 -19.171875 "/></g></g></g><g fill="#d9d9d9" fill-opacity="1"><g transform="translate(112.650772, 264.320957)"><g><path d="M 0.53125 0 C 0.488281 0 0.453125 -0.0078125 0.421875 -0.03125 C 0.398438 -0.0625 0.390625 -0.0976562 0.390625 -0.140625 L 0.390625 -5.453125 C 0.390625 -5.492188 0.398438 -5.523438 0.421875 -5.546875 C 0.453125 -5.578125 0.488281 -5.59375 0.53125 -5.59375 L 1.578125 -5.59375 C 1.617188 -5.59375 1.648438 -5.578125 1.671875 -5.546875 C 1.703125 -5.523438 1.71875 -5.492188 1.71875 -5.453125 L 1.71875 -0.140625 C 1.71875 -0.0976562 1.703125 -0.0625 1.671875 -0.03125 C 1.648438 -0.0078125 1.617188 0 1.578125 0 Z M 0.53125 0 "/></g></g></g><g fill="#d9d9d9" fill-opacity="1"><g transform="translate(116.570836, 264.320957)"><g><path d="M 2.671875 -4.203125 C 3.085938 -4.203125 3.425781 -4.066406 3.6875 -3.796875 C 3.957031 -3.535156 4.09375 -3.179688 4.09375 -2.734375 L 4.09375 -0.140625 C 4.09375 -0.0976562 4.078125 -0.0625 4.046875 -0.03125 C 4.023438 -0.0078125 3.988281 0 3.9375 0 L 2.90625 0 C 2.863281 0 2.828125 -0.0078125 2.796875 -0.03125 C 2.773438 -0.0625 2.765625 -0.0976562 2.765625 -0.140625 L 2.765625 -2.4375 C 2.765625 -2.625 2.710938 -2.773438 2.609375 -2.890625 C 2.515625 -3.003906 2.382812 -3.0625 2.21875 -3.0625 C 2.050781 -3.0625 1.914062 -3.003906 1.8125 -2.890625 C 1.707031 -2.773438 1.65625 -2.625 1.65625 -2.4375 L 1.65625 -0.140625 C 1.65625 -0.0976562 1.640625 -0.0625 1.609375 -0.03125 C 1.585938 -0.0078125 1.554688 0 1.515625 0 L 0.484375 0 C 0.441406 0 0.40625 -0.0078125 0.375 -0.03125 C 0.351562 -0.0625 0.34375 -0.0976562 0.34375 -0.140625 L 0.34375 -3.984375 C 0.34375 -4.035156 0.351562 -4.070312 0.375 -4.09375 C 0.40625 -4.125 0.441406 -4.140625 0.484375 -4.140625 L 1.515625 -4.140625 C 1.554688 -4.140625 1.585938 -4.125 1.609375 -4.09375 C 1.640625 -4.070312 1.65625 -4.035156 1.65625 -3.984375 L 1.65625 -3.765625 C 1.65625 -3.742188 1.660156 -3.726562 1.671875 -3.71875 C 1.691406 -3.71875 1.707031 -3.726562 1.71875 -3.75 C 1.9375 -4.050781 2.253906 -4.203125 2.671875 -4.203125 Z M 2.671875 -4.203125 "/></g></g></g><g fill="#d9d9d9" fill-opacity="1"><g transform="translate(122.770948, 264.320957)"><g><path d="M 2.84375 -4.140625 C 2.882812 -4.140625 2.914062 -4.125 2.9375 -4.09375 C 2.96875 -4.070312 2.984375 -4.039062 2.984375 -4 L 2.984375 -3.203125 C 2.984375 -3.160156 2.96875 -3.125 2.9375 -3.09375 C 2.914062 -3.070312 2.882812 -3.0625 2.84375 -3.0625 L 2.15625 -3.0625 C 2.113281 -3.0625 2.09375 -3.039062 2.09375 -3 L 2.09375 -0.140625 C 2.09375 -0.0976562 2.078125 -0.0625 2.046875 -0.03125 C 2.023438 -0.0078125 1.992188 0 1.953125 0 L 0.90625 0 C 0.863281 0 0.828125 -0.0078125 0.796875 -0.03125 C 0.773438 -0.0625 0.765625 -0.0976562 0.765625 -0.140625 L 0.765625 -3 C 0.765625 -3.039062 0.75 -3.0625 0.71875 -3.0625 L 0.328125 -3.0625 C 0.285156 -3.0625 0.25 -3.070312 0.21875 -3.09375 C 0.195312 -3.125 0.1875 -3.160156 0.1875 -3.203125 L 0.1875 -4 C 0.1875 -4.039062 0.195312 -4.070312 0.21875 -4.09375 C 0.25 -4.125 0.285156 -4.140625 0.328125 -4.140625 L 0.71875 -4.140625 C 0.75 -4.140625 0.765625 -4.160156 0.765625 -4.203125 L 0.765625 -4.40625 C 0.765625 -4.71875 0.820312 -4.960938 0.9375 -5.140625 C 1.050781 -5.316406 1.226562 -5.441406 1.46875 -5.515625 C 1.71875 -5.585938 2.050781 -5.613281 2.46875 -5.59375 L 2.75 -5.59375 C 2.789062 -5.59375 2.820312 -5.578125 2.84375 -5.546875 C 2.875 -5.523438 2.890625 -5.492188 2.890625 -5.453125 L 2.890625 -4.828125 C 2.890625 -4.785156 2.875 -4.75 2.84375 -4.71875 C 2.820312 -4.695312 2.789062 -4.6875 2.75 -4.6875 L 2.484375 -4.6875 C 2.335938 -4.664062 2.234375 -4.625 2.171875 -4.5625 C 2.117188 -4.507812 2.09375 -4.414062 2.09375 -4.28125 L 2.09375 -4.203125 C 2.09375 -4.160156 2.113281 -4.140625 2.15625 -4.140625 Z M 2.84375 -4.140625 "/></g></g></g><g fill="#d9d9d9" fill-opacity="1"><g transform="translate(127.75503, 264.320957)"><g><path d="M 2.234375 0.0625 C 1.753906 0.0625 1.347656 -0.0625 1.015625 -0.3125 C 0.679688 -0.570312 0.457031 -0.921875 0.34375 -1.359375 C 0.269531 -1.578125 0.234375 -1.816406 0.234375 -2.078125 C 0.234375 -2.347656 0.269531 -2.609375 0.34375 -2.859375 C 0.46875 -3.273438 0.695312 -3.601562 1.03125 -3.84375 C 1.363281 -4.082031 1.765625 -4.203125 2.234375 -4.203125 C 2.703125 -4.203125 3.097656 -4.082031 3.421875 -3.84375 C 3.753906 -3.601562 3.984375 -3.273438 4.109375 -2.859375 C 4.179688 -2.617188 4.21875 -2.363281 4.21875 -2.09375 C 4.21875 -1.851562 4.191406 -1.617188 4.140625 -1.390625 C 4.023438 -0.941406 3.796875 -0.585938 3.453125 -0.328125 C 3.117188 -0.0664062 2.710938 0.0625 2.234375 0.0625 Z M 2.234375 -1.078125 C 2.390625 -1.078125 2.519531 -1.125 2.625 -1.21875 C 2.726562 -1.320312 2.800781 -1.457031 2.84375 -1.625 C 2.875 -1.757812 2.890625 -1.910156 2.890625 -2.078125 C 2.890625 -2.234375 2.867188 -2.390625 2.828125 -2.546875 C 2.785156 -2.710938 2.710938 -2.835938 2.609375 -2.921875 C 2.515625 -3.015625 2.390625 -3.0625 2.234375 -3.0625 C 2.066406 -3.0625 1.9375 -3.015625 1.84375 -2.921875 C 1.75 -2.835938 1.675781 -2.710938 1.625 -2.546875 C 1.59375 -2.429688 1.578125 -2.273438 1.578125 -2.078125 C 1.578125 -1.910156 1.59375 -1.757812 1.625 -1.625 C 1.675781 -1.457031 1.75 -1.320312 1.84375 -1.21875 C 1.945312 -1.125 2.078125 -1.078125 2.234375 -1.078125 Z M 2.234375 -1.078125 "/></g></g></g><g fill="#d9d9d9" fill-opacity="1"><g transform="translate(134.019139, 264.320957)"><g><path d="M 2.84375 -3.984375 C 2.84375 -4.035156 2.851562 -4.070312 2.875 -4.09375 C 2.90625 -4.125 2.941406 -4.140625 2.984375 -4.140625 L 4.03125 -4.140625 C 4.070312 -4.140625 4.101562 -4.125 4.125 -4.09375 C 4.15625 -4.070312 4.171875 -4.035156 4.171875 -3.984375 L 4.171875 -0.46875 C 4.171875 0.257812 3.957031 0.78125 3.53125 1.09375 C 3.113281 1.414062 2.582031 1.578125 1.9375 1.578125 C 1.738281 1.578125 1.503906 1.554688 1.234375 1.515625 C 1.140625 1.503906 1.097656 1.453125 1.109375 1.359375 L 1.140625 0.46875 C 1.148438 0.363281 1.207031 0.320312 1.3125 0.34375 C 1.519531 0.382812 1.707031 0.40625 1.875 0.40625 C 2.175781 0.40625 2.410156 0.332031 2.578125 0.1875 C 2.753906 0.0507812 2.84375 -0.160156 2.84375 -0.453125 L 2.765625 -0.375 C 2.578125 -0.195312 2.304688 -0.109375 1.953125 -0.109375 C 1.609375 -0.109375 1.285156 -0.1875 0.984375 -0.34375 C 0.691406 -0.5 0.484375 -0.769531 0.359375 -1.15625 C 0.273438 -1.414062 0.234375 -1.734375 0.234375 -2.109375 C 0.234375 -2.515625 0.285156 -2.847656 0.390625 -3.109375 C 0.503906 -3.441406 0.695312 -3.707031 0.96875 -3.90625 C 1.238281 -4.101562 1.550781 -4.203125 1.90625 -4.203125 C 2.28125 -4.203125 2.570312 -4.09375 2.78125 -3.875 C 2.800781 -3.851562 2.816406 -3.84375 2.828125 -3.84375 C 2.835938 -3.851562 2.84375 -3.867188 2.84375 -3.890625 Z M 2.78125 -1.515625 C 2.820312 -1.640625 2.84375 -1.835938 2.84375 -2.109375 C 2.84375 -2.253906 2.835938 -2.367188 2.828125 -2.453125 C 2.816406 -2.535156 2.796875 -2.613281 2.765625 -2.6875 C 2.722656 -2.800781 2.65625 -2.890625 2.5625 -2.953125 C 2.46875 -3.023438 2.351562 -3.0625 2.21875 -3.0625 C 1.96875 -3.0625 1.789062 -2.9375 1.6875 -2.6875 C 1.601562 -2.539062 1.5625 -2.34375 1.5625 -2.09375 C 1.5625 -1.832031 1.597656 -1.640625 1.671875 -1.515625 C 1.722656 -1.410156 1.796875 -1.320312 1.890625 -1.25 C 1.984375 -1.175781 2.097656 -1.140625 2.234375 -1.140625 C 2.503906 -1.140625 2.6875 -1.265625 2.78125 -1.515625 Z M 2.78125 -1.515625 "/></g></g></g><g fill="#d9d9d9" fill-opacity="1"><g transform="translate(140.323246, 264.320957)"><g><path d="M 2.53125 -4.1875 C 2.707031 -4.1875 2.847656 -4.160156 2.953125 -4.109375 C 3.023438 -4.066406 3.050781 -4.003906 3.03125 -3.921875 L 2.859375 -2.90625 C 2.847656 -2.832031 2.8125 -2.796875 2.75 -2.796875 C 2.726562 -2.796875 2.707031 -2.800781 2.6875 -2.8125 C 2.625 -2.820312 2.546875 -2.828125 2.453125 -2.828125 C 2.359375 -2.828125 2.289062 -2.820312 2.25 -2.8125 C 2.09375 -2.789062 1.953125 -2.726562 1.828125 -2.625 C 1.710938 -2.519531 1.65625 -2.378906 1.65625 -2.203125 L 1.65625 -0.140625 C 1.65625 -0.0976562 1.640625 -0.0625 1.609375 -0.03125 C 1.585938 -0.0078125 1.554688 0 1.515625 0 L 0.484375 0 C 0.441406 0 0.40625 -0.0078125 0.375 -0.03125 C 0.351562 -0.0625 0.34375 -0.0976562 0.34375 -0.140625 L 0.34375 -3.984375 C 0.34375 -4.035156 0.351562 -4.070312 0.375 -4.09375 C 0.40625 -4.125 0.441406 -4.140625 0.484375 -4.140625 L 1.515625 -4.140625 C 1.554688 -4.140625 1.585938 -4.125 1.609375 -4.09375 C 1.640625 -4.070312 1.65625 -4.035156 1.65625 -3.984375 L 1.65625 -3.8125 C 1.65625 -3.789062 1.660156 -3.773438 1.671875 -3.765625 C 1.691406 -3.765625 1.707031 -3.773438 1.71875 -3.796875 C 1.9375 -4.054688 2.207031 -4.1875 2.53125 -4.1875 Z M 2.53125 -4.1875 "/></g></g></g><g fill="#d9d9d9" fill-opacity="1"><g transform="translate(145.243333, 264.320957)"><g><path d="M 2.078125 -4.203125 C 2.421875 -4.203125 2.738281 -4.140625 3.03125 -4.015625 C 3.320312 -3.898438 3.546875 -3.734375 3.703125 -3.515625 C 3.867188 -3.304688 3.953125 -3.078125 3.953125 -2.828125 L 3.953125 -0.140625 C 3.953125 -0.0976562 3.9375 -0.0625 3.90625 -0.03125 C 3.882812 -0.0078125 3.851562 0 3.8125 0 L 2.78125 0 C 2.738281 0 2.703125 -0.0078125 2.671875 -0.03125 C 2.640625 -0.0625 2.625 -0.0976562 2.625 -0.140625 L 2.625 -0.296875 C 2.625 -0.328125 2.617188 -0.34375 2.609375 -0.34375 C 2.597656 -0.351562 2.582031 -0.347656 2.5625 -0.328125 C 2.351562 -0.0664062 2.007812 0.0625 1.53125 0.0625 C 1.113281 0.0625 0.78125 -0.0351562 0.53125 -0.234375 C 0.28125 -0.429688 0.15625 -0.726562 0.15625 -1.125 C 0.15625 -1.53125 0.296875 -1.84375 0.578125 -2.0625 C 0.867188 -2.289062 1.28125 -2.40625 1.8125 -2.40625 L 2.578125 -2.40625 C 2.609375 -2.40625 2.625 -2.425781 2.625 -2.46875 L 2.625 -2.59375 C 2.625 -2.738281 2.578125 -2.851562 2.484375 -2.9375 C 2.398438 -3.019531 2.269531 -3.0625 2.09375 -3.0625 C 1.96875 -3.0625 1.859375 -3.039062 1.765625 -3 C 1.679688 -2.957031 1.625 -2.90625 1.59375 -2.84375 C 1.5625 -2.800781 1.535156 -2.769531 1.515625 -2.75 C 1.492188 -2.738281 1.460938 -2.734375 1.421875 -2.734375 L 0.359375 -2.875 C 0.253906 -2.882812 0.207031 -2.921875 0.21875 -2.984375 C 0.25 -3.210938 0.347656 -3.414062 0.515625 -3.59375 C 0.679688 -3.78125 0.894531 -3.925781 1.15625 -4.03125 C 1.425781 -4.144531 1.734375 -4.203125 2.078125 -4.203125 Z M 1.9375 -0.890625 C 2.132812 -0.890625 2.296875 -0.941406 2.421875 -1.046875 C 2.554688 -1.148438 2.625 -1.285156 2.625 -1.453125 L 2.625 -1.625 C 2.625 -1.664062 2.609375 -1.6875 2.578125 -1.6875 L 2.109375 -1.6875 C 1.910156 -1.6875 1.753906 -1.648438 1.640625 -1.578125 C 1.535156 -1.515625 1.484375 -1.410156 1.484375 -1.265625 C 1.484375 -1.148438 1.519531 -1.054688 1.59375 -0.984375 C 1.675781 -0.921875 1.789062 -0.890625 1.9375 -0.890625 Z M 1.9375 -0.890625 "/></g></g></g><g fill="#d9d9d9" fill-opacity="1"><g transform="translate(151.323438, 264.320957)"><g><path d="M 2.84375 -4.140625 C 2.882812 -4.140625 2.914062 -4.125 2.9375 -4.09375 C 2.96875 -4.070312 2.984375 -4.039062 2.984375 -4 L 2.984375 -3.203125 C 2.984375 -3.160156 2.96875 -3.125 2.9375 -3.09375 C 2.914062 -3.070312 2.882812 -3.0625 2.84375 -3.0625 L 2.15625 -3.0625 C 2.113281 -3.0625 2.09375 -3.039062 2.09375 -3 L 2.09375 -0.140625 C 2.09375 -0.0976562 2.078125 -0.0625 2.046875 -0.03125 C 2.023438 -0.0078125 1.992188 0 1.953125 0 L 0.90625 0 C 0.863281 0 0.828125 -0.0078125 0.796875 -0.03125 C 0.773438 -0.0625 0.765625 -0.0976562 0.765625 -0.140625 L 0.765625 -3 C 0.765625 -3.039062 0.75 -3.0625 0.71875 -3.0625 L 0.328125 -3.0625 C 0.285156 -3.0625 0.25 -3.070312 0.21875 -3.09375 C 0.195312 -3.125 0.1875 -3.160156 0.1875 -3.203125 L 0.1875 -4 C 0.1875 -4.039062 0.195312 -4.070312 0.21875 -4.09375 C 0.25 -4.125 0.285156 -4.140625 0.328125 -4.140625 L 0.71875 -4.140625 C 0.75 -4.140625 0.765625 -4.160156 0.765625 -4.203125 L 0.765625 -4.40625 C 0.765625 -4.71875 0.820312 -4.960938 0.9375 -5.140625 C 1.050781 -5.316406 1.226562 -5.441406 1.46875 -5.515625 C 1.71875 -5.585938 2.050781 -5.613281 2.46875 -5.59375 L 2.75 -5.59375 C 2.789062 -5.59375 2.820312 -5.578125 2.84375 -5.546875 C 2.875 -5.523438 2.890625 -5.492188 2.890625 -5.453125 L 2.890625 -4.828125 C 2.890625 -4.785156 2.875 -4.75 2.84375 -4.71875 C 2.820312 -4.695312 2.789062 -4.6875 2.75 -4.6875 L 2.484375 -4.6875 C 2.335938 -4.664062 2.234375 -4.625 2.171875 -4.5625 C 2.117188 -4.507812 2.09375 -4.414062 2.09375 -4.28125 L 2.09375 -4.203125 C 2.09375 -4.160156 2.113281 -4.140625 2.15625 -4.140625 Z M 2.84375 -4.140625 "/></g></g></g><g fill="#d9d9d9" fill-opacity="1"><g transform="translate(156.307519, 264.320957)"><g><path d="M 1.0625 -4.40625 C 0.832031 -4.40625 0.644531 -4.472656 0.5 -4.609375 C 0.351562 -4.753906 0.28125 -4.941406 0.28125 -5.171875 C 0.28125 -5.398438 0.351562 -5.582031 0.5 -5.71875 C 0.644531 -5.851562 0.832031 -5.921875 1.0625 -5.921875 C 1.300781 -5.921875 1.488281 -5.851562 1.625 -5.71875 C 1.769531 -5.582031 1.84375 -5.398438 1.84375 -5.171875 C 1.84375 -4.941406 1.769531 -4.753906 1.625 -4.609375 C 1.488281 -4.472656 1.300781 -4.40625 1.0625 -4.40625 Z M 0.546875 0 C 0.503906 0 0.46875 -0.0078125 0.4375 -0.03125 C 0.414062 -0.0625 0.40625 -0.0976562 0.40625 -0.140625 L 0.40625 -3.984375 C 0.40625 -4.035156 0.414062 -4.070312 0.4375 -4.09375 C 0.46875 -4.125 0.503906 -4.140625 0.546875 -4.140625 L 1.578125 -4.140625 C 1.617188 -4.140625 1.65625 -4.125 1.6875 -4.09375 C 1.71875 -4.070312 1.734375 -4.035156 1.734375 -3.984375 L 1.734375 -0.140625 C 1.734375 -0.0976562 1.71875 -0.0625 1.6875 -0.03125 C 1.65625 -0.0078125 1.617188 0 1.578125 0 Z M 0.546875 0 "/></g></g></g><g fill="#d9d9d9" fill-opacity="1"><g transform="translate(160.227581, 264.320957)"><g><path d="M 2.234375 0.0625 C 1.796875 0.0625 1.410156 -0.046875 1.078125 -0.265625 C 0.753906 -0.484375 0.523438 -0.785156 0.390625 -1.171875 C 0.285156 -1.421875 0.234375 -1.726562 0.234375 -2.09375 C 0.234375 -2.445312 0.285156 -2.753906 0.390625 -3.015625 C 0.523438 -3.378906 0.753906 -3.664062 1.078125 -3.875 C 1.410156 -4.09375 1.796875 -4.203125 2.234375 -4.203125 C 2.679688 -4.203125 3.070312 -4.09375 3.40625 -3.875 C 3.738281 -3.65625 3.96875 -3.378906 4.09375 -3.046875 C 4.125 -2.953125 4.144531 -2.863281 4.15625 -2.78125 L 4.15625 -2.75 C 4.15625 -2.675781 4.113281 -2.628906 4.03125 -2.609375 L 3.015625 -2.46875 L 2.96875 -2.453125 C 2.894531 -2.453125 2.851562 -2.484375 2.84375 -2.546875 L 2.8125 -2.65625 C 2.78125 -2.78125 2.710938 -2.878906 2.609375 -2.953125 C 2.503906 -3.023438 2.378906 -3.0625 2.234375 -3.0625 C 1.953125 -3.0625 1.765625 -2.9375 1.671875 -2.6875 C 1.609375 -2.539062 1.578125 -2.335938 1.578125 -2.078125 C 1.578125 -1.847656 1.601562 -1.648438 1.65625 -1.484375 C 1.757812 -1.210938 1.953125 -1.078125 2.234375 -1.078125 C 2.367188 -1.078125 2.484375 -1.109375 2.578125 -1.171875 C 2.679688 -1.242188 2.757812 -1.347656 2.8125 -1.484375 L 2.8125 -1.515625 C 2.820312 -1.546875 2.84375 -1.570312 2.875 -1.59375 C 2.90625 -1.625 2.941406 -1.640625 2.984375 -1.640625 L 4.015625 -1.484375 C 4.109375 -1.460938 4.144531 -1.40625 4.125 -1.3125 C 4.113281 -1.226562 4.101562 -1.164062 4.09375 -1.125 C 3.957031 -0.75 3.722656 -0.457031 3.390625 -0.25 C 3.054688 -0.0390625 2.671875 0.0625 2.234375 0.0625 Z M 2.234375 0.0625 "/></g></g></g><g fill="#d9d9d9" fill-opacity="1"><g transform="translate(166.379686, 264.320957)"><g><path d="M 2.234375 0.0625 C 1.753906 0.0625 1.347656 -0.0625 1.015625 -0.3125 C 0.679688 -0.570312 0.457031 -0.921875 0.34375 -1.359375 C 0.269531 -1.578125 0.234375 -1.816406 0.234375 -2.078125 C 0.234375 -2.347656 0.269531 -2.609375 0.34375 -2.859375 C 0.46875 -3.273438 0.695312 -3.601562 1.03125 -3.84375 C 1.363281 -4.082031 1.765625 -4.203125 2.234375 -4.203125 C 2.703125 -4.203125 3.097656 -4.082031 3.421875 -3.84375 C 3.753906 -3.601562 3.984375 -3.273438 4.109375 -2.859375 C 4.179688 -2.617188 4.21875 -2.363281 4.21875 -2.09375 C 4.21875 -1.851562 4.191406 -1.617188 4.140625 -1.390625 C 4.023438 -0.941406 3.796875 -0.585938 3.453125 -0.328125 C 3.117188 -0.0664062 2.710938 0.0625 2.234375 0.0625 Z M 2.234375 -1.078125 C 2.390625 -1.078125 2.519531 -1.125 2.625 -1.21875 C 2.726562 -1.320312 2.800781 -1.457031 2.84375 -1.625 C 2.875 -1.757812 2.890625 -1.910156 2.890625 -2.078125 C 2.890625 -2.234375 2.867188 -2.390625 2.828125 -2.546875 C 2.785156 -2.710938 2.710938 -2.835938 2.609375 -2.921875 C 2.515625 -3.015625 2.390625 -3.0625 2.234375 -3.0625 C 2.066406 -3.0625 1.9375 -3.015625 1.84375 -2.921875 C 1.75 -2.835938 1.675781 -2.710938 1.625 -2.546875 C 1.59375 -2.429688 1.578125 -2.273438 1.578125 -2.078125 C 1.578125 -1.910156 1.59375 -1.757812 1.625 -1.625 C 1.675781 -1.457031 1.75 -1.320312 1.84375 -1.21875 C 1.945312 -1.125 2.078125 -1.078125 2.234375 -1.078125 Z M 2.234375 -1.078125 "/></g></g></g><g fill="#d9d9d9" fill-opacity="1"><g transform="translate(172.643792, 264.320957)"><g><path d="M 2.09375 0.0625 C 1.71875 0.0625 1.390625 0.0078125 1.109375 -0.09375 C 0.828125 -0.195312 0.609375 -0.34375 0.453125 -0.53125 C 0.304688 -0.71875 0.234375 -0.9375 0.234375 -1.1875 L 0.234375 -1.21875 C 0.234375 -1.257812 0.242188 -1.296875 0.265625 -1.328125 C 0.296875 -1.359375 0.332031 -1.375 0.375 -1.375 L 1.359375 -1.375 C 1.453125 -1.375 1.5 -1.351562 1.5 -1.3125 L 1.5 -1.265625 C 1.5 -1.171875 1.550781 -1.085938 1.65625 -1.015625 C 1.769531 -0.953125 1.914062 -0.921875 2.09375 -0.921875 C 2.238281 -0.921875 2.351562 -0.945312 2.4375 -1 C 2.53125 -1.050781 2.578125 -1.117188 2.578125 -1.203125 C 2.578125 -1.285156 2.53125 -1.347656 2.4375 -1.390625 C 2.34375 -1.429688 2.191406 -1.46875 1.984375 -1.5 C 1.648438 -1.5625 1.378906 -1.640625 1.171875 -1.734375 C 0.898438 -1.847656 0.679688 -1.988281 0.515625 -2.15625 C 0.359375 -2.332031 0.28125 -2.5625 0.28125 -2.84375 C 0.28125 -3.257812 0.441406 -3.585938 0.765625 -3.828125 C 1.085938 -4.078125 1.515625 -4.203125 2.046875 -4.203125 C 2.398438 -4.203125 2.710938 -4.144531 2.984375 -4.03125 C 3.253906 -3.914062 3.460938 -3.753906 3.609375 -3.546875 C 3.753906 -3.335938 3.828125 -3.097656 3.828125 -2.828125 C 3.828125 -2.796875 3.8125 -2.769531 3.78125 -2.75 C 3.757812 -2.738281 3.726562 -2.734375 3.6875 -2.734375 L 2.734375 -2.734375 C 2.640625 -2.734375 2.59375 -2.75 2.59375 -2.78125 L 2.59375 -2.828125 C 2.59375 -2.921875 2.539062 -3 2.4375 -3.0625 C 2.34375 -3.132812 2.21875 -3.171875 2.0625 -3.171875 C 1.90625 -3.171875 1.78125 -3.144531 1.6875 -3.09375 C 1.59375 -3.039062 1.546875 -2.96875 1.546875 -2.875 C 1.546875 -2.789062 1.597656 -2.726562 1.703125 -2.6875 C 1.804688 -2.644531 1.976562 -2.597656 2.21875 -2.546875 C 2.539062 -2.484375 2.757812 -2.4375 2.875 -2.40625 C 3.195312 -2.289062 3.445312 -2.144531 3.625 -1.96875 C 3.8125 -1.789062 3.90625 -1.546875 3.90625 -1.234375 C 3.90625 -0.816406 3.738281 -0.492188 3.40625 -0.265625 C 3.082031 -0.046875 2.644531 0.0625 2.09375 0.0625 Z M 2.09375 0.0625 "/></g></g></g><g fill="#d9d9d9" fill-opacity="1"><g transform="translate(178.531896, 264.320957)"><g/></g></g><g fill="#d9d9d9" fill-opacity="1"><g transform="translate(181.931953, 264.320957)"><g><path d="M 2.8125 -5.453125 C 2.8125 -5.492188 2.820312 -5.523438 2.84375 -5.546875 C 2.875 -5.578125 2.910156 -5.59375 2.953125 -5.59375 L 4 -5.59375 C 4.039062 -5.59375 4.070312 -5.578125 4.09375 -5.546875 C 4.125 -5.523438 4.140625 -5.492188 4.140625 -5.453125 L 4.140625 -0.140625 C 4.140625 -0.0976562 4.125 -0.0625 4.09375 -0.03125 C 4.070312 -0.0078125 4.039062 0 4 0 L 2.953125 0 C 2.910156 0 2.875 -0.0078125 2.84375 -0.03125 C 2.820312 -0.0625 2.8125 -0.0976562 2.8125 -0.140625 L 2.8125 -0.34375 C 2.8125 -0.363281 2.804688 -0.375 2.796875 -0.375 C 2.785156 -0.382812 2.769531 -0.378906 2.75 -0.359375 C 2.550781 -0.078125 2.25 0.0625 1.84375 0.0625 C 1.488281 0.0625 1.164062 -0.0507812 0.875 -0.28125 C 0.582031 -0.507812 0.382812 -0.804688 0.28125 -1.171875 C 0.195312 -1.429688 0.15625 -1.738281 0.15625 -2.09375 C 0.15625 -2.46875 0.207031 -2.800781 0.3125 -3.09375 C 0.4375 -3.425781 0.632812 -3.691406 0.90625 -3.890625 C 1.1875 -4.097656 1.5 -4.203125 1.84375 -4.203125 C 2.25 -4.203125 2.550781 -4.082031 2.75 -3.84375 C 2.769531 -3.820312 2.785156 -3.8125 2.796875 -3.8125 C 2.804688 -3.820312 2.8125 -3.835938 2.8125 -3.859375 Z M 2.671875 -1.40625 C 2.765625 -1.570312 2.8125 -1.789062 2.8125 -2.0625 C 2.8125 -2.351562 2.757812 -2.585938 2.65625 -2.765625 C 2.550781 -2.953125 2.398438 -3.046875 2.203125 -3.046875 C 1.992188 -3.046875 1.832031 -2.953125 1.71875 -2.765625 C 1.625 -2.585938 1.578125 -2.351562 1.578125 -2.0625 C 1.578125 -1.789062 1.625 -1.570312 1.71875 -1.40625 C 1.820312 -1.207031 1.984375 -1.109375 2.203125 -1.109375 C 2.398438 -1.109375 2.554688 -1.207031 2.671875 -1.40625 Z M 2.671875 -1.40625 "/></g></g></g><g fill="#d9d9d9" fill-opacity="1"><g transform="translate(188.228062, 264.320957)"><g><path d="M 2.421875 -1.0625 C 2.578125 -1.0625 2.726562 -1.085938 2.875 -1.140625 C 3.019531 -1.191406 3.140625 -1.257812 3.234375 -1.34375 C 3.265625 -1.382812 3.300781 -1.40625 3.34375 -1.40625 C 3.375 -1.40625 3.40625 -1.382812 3.4375 -1.34375 L 3.921875 -0.75 C 3.953125 -0.71875 3.96875 -0.679688 3.96875 -0.640625 C 3.96875 -0.609375 3.953125 -0.578125 3.921875 -0.546875 C 3.742188 -0.347656 3.515625 -0.195312 3.234375 -0.09375 C 2.960938 0.0078125 2.671875 0.0625 2.359375 0.0625 C 1.992188 0.0625 1.671875 0 1.390625 -0.125 C 1.109375 -0.257812 0.878906 -0.445312 0.703125 -0.6875 C 0.398438 -1.050781 0.25 -1.523438 0.25 -2.109375 C 0.25 -2.359375 0.28125 -2.597656 0.34375 -2.828125 C 0.457031 -3.242188 0.6875 -3.578125 1.03125 -3.828125 C 1.375 -4.078125 1.773438 -4.203125 2.234375 -4.203125 C 2.765625 -4.203125 3.191406 -4.035156 3.515625 -3.703125 C 3.847656 -3.378906 4.066406 -2.921875 4.171875 -2.328125 C 4.191406 -2.179688 4.207031 -2.019531 4.21875 -1.84375 C 4.21875 -1.75 4.171875 -1.703125 4.078125 -1.703125 L 1.65625 -1.703125 C 1.632812 -1.703125 1.617188 -1.691406 1.609375 -1.671875 C 1.597656 -1.660156 1.59375 -1.644531 1.59375 -1.625 L 1.640625 -1.46875 C 1.703125 -1.34375 1.796875 -1.242188 1.921875 -1.171875 C 2.054688 -1.097656 2.222656 -1.0625 2.421875 -1.0625 Z M 2.203125 -3.0625 C 1.929688 -3.0625 1.75 -2.929688 1.65625 -2.671875 C 1.632812 -2.617188 1.617188 -2.578125 1.609375 -2.546875 L 1.609375 -2.53125 C 1.609375 -2.5 1.628906 -2.484375 1.671875 -2.484375 L 2.765625 -2.484375 C 2.785156 -2.484375 2.800781 -2.488281 2.8125 -2.5 C 2.820312 -2.519531 2.820312 -2.535156 2.8125 -2.546875 L 2.78125 -2.65625 C 2.738281 -2.78125 2.671875 -2.878906 2.578125 -2.953125 C 2.484375 -3.023438 2.359375 -3.0625 2.203125 -3.0625 Z M 2.203125 -3.0625 "/></g></g></g><g fill="#d9d9d9" fill-opacity="1"><g transform="translate(194.444173, 264.320957)"><g/></g></g><g fill="#d9d9d9" fill-opacity="1"><g transform="translate(197.84423, 264.320957)"><g><path d="M 2.234375 0.0625 C 1.796875 0.0625 1.410156 -0.046875 1.078125 -0.265625 C 0.753906 -0.484375 0.523438 -0.785156 0.390625 -1.171875 C 0.285156 -1.421875 0.234375 -1.726562 0.234375 -2.09375 C 0.234375 -2.445312 0.285156 -2.753906 0.390625 -3.015625 C 0.523438 -3.378906 0.753906 -3.664062 1.078125 -3.875 C 1.410156 -4.09375 1.796875 -4.203125 2.234375 -4.203125 C 2.679688 -4.203125 3.070312 -4.09375 3.40625 -3.875 C 3.738281 -3.65625 3.96875 -3.378906 4.09375 -3.046875 C 4.125 -2.953125 4.144531 -2.863281 4.15625 -2.78125 L 4.15625 -2.75 C 4.15625 -2.675781 4.113281 -2.628906 4.03125 -2.609375 L 3.015625 -2.46875 L 2.96875 -2.453125 C 2.894531 -2.453125 2.851562 -2.484375 2.84375 -2.546875 L 2.8125 -2.65625 C 2.78125 -2.78125 2.710938 -2.878906 2.609375 -2.953125 C 2.503906 -3.023438 2.378906 -3.0625 2.234375 -3.0625 C 1.953125 -3.0625 1.765625 -2.9375 1.671875 -2.6875 C 1.609375 -2.539062 1.578125 -2.335938 1.578125 -2.078125 C 1.578125 -1.847656 1.601562 -1.648438 1.65625 -1.484375 C 1.757812 -1.210938 1.953125 -1.078125 2.234375 -1.078125 C 2.367188 -1.078125 2.484375 -1.109375 2.578125 -1.171875 C 2.679688 -1.242188 2.757812 -1.347656 2.8125 -1.484375 L 2.8125 -1.515625 C 2.820312 -1.546875 2.84375 -1.570312 2.875 -1.59375 C 2.90625 -1.625 2.941406 -1.640625 2.984375 -1.640625 L 4.015625 -1.484375 C 4.109375 -1.460938 4.144531 -1.40625 4.125 -1.3125 C 4.113281 -1.226562 4.101562 -1.164062 4.09375 -1.125 C 3.957031 -0.75 3.722656 -0.457031 3.390625 -0.25 C 3.054688 -0.0390625 2.671875 0.0625 2.234375 0.0625 Z M 2.234375 0.0625 "/></g></g></g><g fill="#d9d9d9" fill-opacity="1"><g transform="translate(203.99634, 264.320957)"><g><path d="M 2.234375 0.0625 C 1.753906 0.0625 1.347656 -0.0625 1.015625 -0.3125 C 0.679688 -0.570312 0.457031 -0.921875 0.34375 -1.359375 C 0.269531 -1.578125 0.234375 -1.816406 0.234375 -2.078125 C 0.234375 -2.347656 0.269531 -2.609375 0.34375 -2.859375 C 0.46875 -3.273438 0.695312 -3.601562 1.03125 -3.84375 C 1.363281 -4.082031 1.765625 -4.203125 2.234375 -4.203125 C 2.703125 -4.203125 3.097656 -4.082031 3.421875 -3.84375 C 3.753906 -3.601562 3.984375 -3.273438 4.109375 -2.859375 C 4.179688 -2.617188 4.21875 -2.363281 4.21875 -2.09375 C 4.21875 -1.851562 4.191406 -1.617188 4.140625 -1.390625 C 4.023438 -0.941406 3.796875 -0.585938 3.453125 -0.328125 C 3.117188 -0.0664062 2.710938 0.0625 2.234375 0.0625 Z M 2.234375 -1.078125 C 2.390625 -1.078125 2.519531 -1.125 2.625 -1.21875 C 2.726562 -1.320312 2.800781 -1.457031 2.84375 -1.625 C 2.875 -1.757812 2.890625 -1.910156 2.890625 -2.078125 C 2.890625 -2.234375 2.867188 -2.390625 2.828125 -2.546875 C 2.785156 -2.710938 2.710938 -2.835938 2.609375 -2.921875 C 2.515625 -3.015625 2.390625 -3.0625 2.234375 -3.0625 C 2.066406 -3.0625 1.9375 -3.015625 1.84375 -2.921875 C 1.75 -2.835938 1.675781 -2.710938 1.625 -2.546875 C 1.59375 -2.429688 1.578125 -2.273438 1.578125 -2.078125 C 1.578125 -1.910156 1.59375 -1.757812 1.625 -1.625 C 1.675781 -1.457031 1.75 -1.320312 1.84375 -1.21875 C 1.945312 -1.125 2.078125 -1.078125 2.234375 -1.078125 Z M 2.234375 -1.078125 "/></g></g></g><g fill="#d9d9d9" fill-opacity="1"><g transform="translate(210.260445, 264.320957)"><g><path d="M 2.671875 -4.203125 C 3.085938 -4.203125 3.425781 -4.066406 3.6875 -3.796875 C 3.957031 -3.535156 4.09375 -3.179688 4.09375 -2.734375 L 4.09375 -0.140625 C 4.09375 -0.0976562 4.078125 -0.0625 4.046875 -0.03125 C 4.023438 -0.0078125 3.988281 0 3.9375 0 L 2.90625 0 C 2.863281 0 2.828125 -0.0078125 2.796875 -0.03125 C 2.773438 -0.0625 2.765625 -0.0976562 2.765625 -0.140625 L 2.765625 -2.4375 C 2.765625 -2.625 2.710938 -2.773438 2.609375 -2.890625 C 2.515625 -3.003906 2.382812 -3.0625 2.21875 -3.0625 C 2.050781 -3.0625 1.914062 -3.003906 1.8125 -2.890625 C 1.707031 -2.773438 1.65625 -2.625 1.65625 -2.4375 L 1.65625 -0.140625 C 1.65625 -0.0976562 1.640625 -0.0625 1.609375 -0.03125 C 1.585938 -0.0078125 1.554688 0 1.515625 0 L 0.484375 0 C 0.441406 0 0.40625 -0.0078125 0.375 -0.03125 C 0.351562 -0.0625 0.34375 -0.0976562 0.34375 -0.140625 L 0.34375 -3.984375 C 0.34375 -4.035156 0.351562 -4.070312 0.375 -4.09375 C 0.40625 -4.125 0.441406 -4.140625 0.484375 -4.140625 L 1.515625 -4.140625 C 1.554688 -4.140625 1.585938 -4.125 1.609375 -4.09375 C 1.640625 -4.070312 1.65625 -4.035156 1.65625 -3.984375 L 1.65625 -3.765625 C 1.65625 -3.742188 1.660156 -3.726562 1.671875 -3.71875 C 1.691406 -3.71875 1.707031 -3.726562 1.71875 -3.75 C 1.9375 -4.050781 2.253906 -4.203125 2.671875 -4.203125 Z M 2.671875 -4.203125 "/></g></g></g><g fill="#d9d9d9" fill-opacity="1"><g transform="translate(216.460555, 264.320957)"><g><path d="M 1.5625 0 C 1.476562 0 1.421875 -0.0390625 1.390625 -0.125 L 0.171875 -3.96875 C 0.160156 -3.976562 0.15625 -4 0.15625 -4.03125 C 0.15625 -4.101562 0.195312 -4.140625 0.28125 -4.140625 L 1.4375 -4.140625 C 1.476562 -4.140625 1.507812 -4.125 1.53125 -4.09375 C 1.5625 -4.070312 1.582031 -4.046875 1.59375 -4.015625 L 2.109375 -1.875 C 2.117188 -1.851562 2.128906 -1.84375 2.140625 -1.84375 C 2.160156 -1.84375 2.171875 -1.851562 2.171875 -1.875 L 2.6875 -4.015625 C 2.695312 -4.046875 2.710938 -4.070312 2.734375 -4.09375 C 2.765625 -4.125 2.800781 -4.140625 2.84375 -4.140625 L 4 -4.125 C 4.050781 -4.125 4.085938 -4.109375 4.109375 -4.078125 C 4.128906 -4.054688 4.132812 -4.019531 4.125 -3.96875 L 2.90625 -0.125 C 2.882812 -0.0390625 2.828125 0 2.734375 0 Z M 1.5625 0 "/></g></g></g><g fill="#d9d9d9" fill-opacity="1"><g transform="translate(222.548664, 264.320957)"><g><path d="M 2.421875 -1.0625 C 2.578125 -1.0625 2.726562 -1.085938 2.875 -1.140625 C 3.019531 -1.191406 3.140625 -1.257812 3.234375 -1.34375 C 3.265625 -1.382812 3.300781 -1.40625 3.34375 -1.40625 C 3.375 -1.40625 3.40625 -1.382812 3.4375 -1.34375 L 3.921875 -0.75 C 3.953125 -0.71875 3.96875 -0.679688 3.96875 -0.640625 C 3.96875 -0.609375 3.953125 -0.578125 3.921875 -0.546875 C 3.742188 -0.347656 3.515625 -0.195312 3.234375 -0.09375 C 2.960938 0.0078125 2.671875 0.0625 2.359375 0.0625 C 1.992188 0.0625 1.671875 0 1.390625 -0.125 C 1.109375 -0.257812 0.878906 -0.445312 0.703125 -0.6875 C 0.398438 -1.050781 0.25 -1.523438 0.25 -2.109375 C 0.25 -2.359375 0.28125 -2.597656 0.34375 -2.828125 C 0.457031 -3.242188 0.6875 -3.578125 1.03125 -3.828125 C 1.375 -4.078125 1.773438 -4.203125 2.234375 -4.203125 C 2.765625 -4.203125 3.191406 -4.035156 3.515625 -3.703125 C 3.847656 -3.378906 4.066406 -2.921875 4.171875 -2.328125 C 4.191406 -2.179688 4.207031 -2.019531 4.21875 -1.84375 C 4.21875 -1.75 4.171875 -1.703125 4.078125 -1.703125 L 1.65625 -1.703125 C 1.632812 -1.703125 1.617188 -1.691406 1.609375 -1.671875 C 1.597656 -1.660156 1.59375 -1.644531 1.59375 -1.625 L 1.640625 -1.46875 C 1.703125 -1.34375 1.796875 -1.242188 1.921875 -1.171875 C 2.054688 -1.097656 2.222656 -1.0625 2.421875 -1.0625 Z M 2.203125 -3.0625 C 1.929688 -3.0625 1.75 -2.929688 1.65625 -2.671875 C 1.632812 -2.617188 1.617188 -2.578125 1.609375 -2.546875 L 1.609375 -2.53125 C 1.609375 -2.5 1.628906 -2.484375 1.671875 -2.484375 L 2.765625 -2.484375 C 2.785156 -2.484375 2.800781 -2.488281 2.8125 -2.5 C 2.820312 -2.519531 2.820312 -2.535156 2.8125 -2.546875 L 2.78125 -2.65625 C 2.738281 -2.78125 2.671875 -2.878906 2.578125 -2.953125 C 2.484375 -3.023438 2.359375 -3.0625 2.203125 -3.0625 Z M 2.203125 -3.0625 "/></g></g></g><g fill="#d9d9d9" fill-opacity="1"><g transform="translate(228.764775, 264.320957)"><g><path d="M 2.53125 -4.1875 C 2.707031 -4.1875 2.847656 -4.160156 2.953125 -4.109375 C 3.023438 -4.066406 3.050781 -4.003906 3.03125 -3.921875 L 2.859375 -2.90625 C 2.847656 -2.832031 2.8125 -2.796875 2.75 -2.796875 C 2.726562 -2.796875 2.707031 -2.800781 2.6875 -2.8125 C 2.625 -2.820312 2.546875 -2.828125 2.453125 -2.828125 C 2.359375 -2.828125 2.289062 -2.820312 2.25 -2.8125 C 2.09375 -2.789062 1.953125 -2.726562 1.828125 -2.625 C 1.710938 -2.519531 1.65625 -2.378906 1.65625 -2.203125 L 1.65625 -0.140625 C 1.65625 -0.0976562 1.640625 -0.0625 1.609375 -0.03125 C 1.585938 -0.0078125 1.554688 0 1.515625 0 L 0.484375 0 C 0.441406 0 0.40625 -0.0078125 0.375 -0.03125 C 0.351562 -0.0625 0.34375 -0.0976562 0.34375 -0.140625 L 0.34375 -3.984375 C 0.34375 -4.035156 0.351562 -4.070312 0.375 -4.09375 C 0.40625 -4.125 0.441406 -4.140625 0.484375 -4.140625 L 1.515625 -4.140625 C 1.554688 -4.140625 1.585938 -4.125 1.609375 -4.09375 C 1.640625 -4.070312 1.65625 -4.035156 1.65625 -3.984375 L 1.65625 -3.8125 C 1.65625 -3.789062 1.660156 -3.773438 1.671875 -3.765625 C 1.691406 -3.765625 1.707031 -3.773438 1.71875 -3.796875 C 1.9375 -4.054688 2.207031 -4.1875 2.53125 -4.1875 Z M 2.53125 -4.1875 "/></g></g></g><g fill="#d9d9d9" fill-opacity="1"><g transform="translate(233.68486, 264.320957)"><g><path d="M 2.09375 0.0625 C 1.71875 0.0625 1.390625 0.0078125 1.109375 -0.09375 C 0.828125 -0.195312 0.609375 -0.34375 0.453125 -0.53125 C 0.304688 -0.71875 0.234375 -0.9375 0.234375 -1.1875 L 0.234375 -1.21875 C 0.234375 -1.257812 0.242188 -1.296875 0.265625 -1.328125 C 0.296875 -1.359375 0.332031 -1.375 0.375 -1.375 L 1.359375 -1.375 C 1.453125 -1.375 1.5 -1.351562 1.5 -1.3125 L 1.5 -1.265625 C 1.5 -1.171875 1.550781 -1.085938 1.65625 -1.015625 C 1.769531 -0.953125 1.914062 -0.921875 2.09375 -0.921875 C 2.238281 -0.921875 2.351562 -0.945312 2.4375 -1 C 2.53125 -1.050781 2.578125 -1.117188 2.578125 -1.203125 C 2.578125 -1.285156 2.53125 -1.347656 2.4375 -1.390625 C 2.34375 -1.429688 2.191406 -1.46875 1.984375 -1.5 C 1.648438 -1.5625 1.378906 -1.640625 1.171875 -1.734375 C 0.898438 -1.847656 0.679688 -1.988281 0.515625 -2.15625 C 0.359375 -2.332031 0.28125 -2.5625 0.28125 -2.84375 C 0.28125 -3.257812 0.441406 -3.585938 0.765625 -3.828125 C 1.085938 -4.078125 1.515625 -4.203125 2.046875 -4.203125 C 2.398438 -4.203125 2.710938 -4.144531 2.984375 -4.03125 C 3.253906 -3.914062 3.460938 -3.753906 3.609375 -3.546875 C 3.753906 -3.335938 3.828125 -3.097656 3.828125 -2.828125 C 3.828125 -2.796875 3.8125 -2.769531 3.78125 -2.75 C 3.757812 -2.738281 3.726562 -2.734375 3.6875 -2.734375 L 2.734375 -2.734375 C 2.640625 -2.734375 2.59375 -2.75 2.59375 -2.78125 L 2.59375 -2.828125 C 2.59375 -2.921875 2.539062 -3 2.4375 -3.0625 C 2.34375 -3.132812 2.21875 -3.171875 2.0625 -3.171875 C 1.90625 -3.171875 1.78125 -3.144531 1.6875 -3.09375 C 1.59375 -3.039062 1.546875 -2.96875 1.546875 -2.875 C 1.546875 -2.789062 1.597656 -2.726562 1.703125 -2.6875 C 1.804688 -2.644531 1.976562 -2.597656 2.21875 -2.546875 C 2.539062 -2.484375 2.757812 -2.4375 2.875 -2.40625 C 3.195312 -2.289062 3.445312 -2.144531 3.625 -1.96875 C 3.8125 -1.789062 3.90625 -1.546875 3.90625 -1.234375 C 3.90625 -0.816406 3.738281 -0.492188 3.40625 -0.265625 C 3.082031 -0.046875 2.644531 0.0625 2.09375 0.0625 Z M 2.09375 0.0625 "/></g></g></g><g fill="#d9d9d9" fill-opacity="1"><g transform="translate(239.572964, 264.320957)"><g><path d="M 2.078125 -4.203125 C 2.421875 -4.203125 2.738281 -4.140625 3.03125 -4.015625 C 3.320312 -3.898438 3.546875 -3.734375 3.703125 -3.515625 C 3.867188 -3.304688 3.953125 -3.078125 3.953125 -2.828125 L 3.953125 -0.140625 C 3.953125 -0.0976562 3.9375 -0.0625 3.90625 -0.03125 C 3.882812 -0.0078125 3.851562 0 3.8125 0 L 2.78125 0 C 2.738281 0 2.703125 -0.0078125 2.671875 -0.03125 C 2.640625 -0.0625 2.625 -0.0976562 2.625 -0.140625 L 2.625 -0.296875 C 2.625 -0.328125 2.617188 -0.34375 2.609375 -0.34375 C 2.597656 -0.351562 2.582031 -0.347656 2.5625 -0.328125 C 2.351562 -0.0664062 2.007812 0.0625 1.53125 0.0625 C 1.113281 0.0625 0.78125 -0.0351562 0.53125 -0.234375 C 0.28125 -0.429688 0.15625 -0.726562 0.15625 -1.125 C 0.15625 -1.53125 0.296875 -1.84375 0.578125 -2.0625 C 0.867188 -2.289062 1.28125 -2.40625 1.8125 -2.40625 L 2.578125 -2.40625 C 2.609375 -2.40625 2.625 -2.425781 2.625 -2.46875 L 2.625 -2.59375 C 2.625 -2.738281 2.578125 -2.851562 2.484375 -2.9375 C 2.398438 -3.019531 2.269531 -3.0625 2.09375 -3.0625 C 1.96875 -3.0625 1.859375 -3.039062 1.765625 -3 C 1.679688 -2.957031 1.625 -2.90625 1.59375 -2.84375 C 1.5625 -2.800781 1.535156 -2.769531 1.515625 -2.75 C 1.492188 -2.738281 1.460938 -2.734375 1.421875 -2.734375 L 0.359375 -2.875 C 0.253906 -2.882812 0.207031 -2.921875 0.21875 -2.984375 C 0.25 -3.210938 0.347656 -3.414062 0.515625 -3.59375 C 0.679688 -3.78125 0.894531 -3.925781 1.15625 -4.03125 C 1.425781 -4.144531 1.734375 -4.203125 2.078125 -4.203125 Z M 1.9375 -0.890625 C 2.132812 -0.890625 2.296875 -0.941406 2.421875 -1.046875 C 2.554688 -1.148438 2.625 -1.285156 2.625 -1.453125 L 2.625 -1.625 C 2.625 -1.664062 2.609375 -1.6875 2.578125 -1.6875 L 2.109375 -1.6875 C 1.910156 -1.6875 1.753906 -1.648438 1.640625 -1.578125 C 1.535156 -1.515625 1.484375 -1.410156 1.484375 -1.265625 C 1.484375 -1.148438 1.519531 -1.054688 1.59375 -0.984375 C 1.675781 -0.921875 1.789062 -0.890625 1.9375 -0.890625 Z M 1.9375 -0.890625 "/></g></g></g><g fill="#d9d9d9" fill-opacity="1"><g transform="translate(245.653067, 264.320957)"><g><path d="M 2.234375 -3.0625 C 1.953125 -3.0625 1.765625 -2.9375 1.671875 -2.6875 C 1.609375 -2.539062 1.578125 -2.335938 1.578125 -2.078125 C 1.578125 -1.847656 1.601562 -1.648438 1.65625 -1.484375 C 1.757812 -1.210938 1.953125 -1.078125 2.234375 -1.078125 C 2.367188 -1.078125 2.484375 -1.109375 2.578125 -1.171875 C 2.679688 -1.242188 2.757812 -1.347656 2.8125 -1.484375 L 2.8125 -1.515625 C 2.820312 -1.546875 2.84375 -1.570312 2.875 -1.59375 C 2.90625 -1.625 2.941406 -1.640625 2.984375 -1.640625 L 4.015625 -1.484375 C 4.109375 -1.460938 4.144531 -1.40625 4.125 -1.3125 C 4.113281 -1.226562 4.101562 -1.164062 4.09375 -1.125 C 3.988281 -0.832031 3.816406 -0.585938 3.578125 -0.390625 C 3.347656 -0.191406 3.070312 -0.0546875 2.75 0.015625 C 2.726562 0.015625 2.710938 0.0195312 2.703125 0.03125 C 2.703125 0.0507812 2.710938 0.0664062 2.734375 0.078125 C 2.953125 0.296875 3.0625 0.519531 3.0625 0.75 C 3.0625 0.820312 3.050781 0.890625 3.03125 0.953125 C 2.96875 1.140625 2.867188 1.273438 2.734375 1.359375 C 2.597656 1.441406 2.4375 1.484375 2.25 1.484375 C 2.0625 1.484375 1.890625 1.453125 1.734375 1.390625 C 1.648438 1.367188 1.613281 1.3125 1.625 1.21875 L 1.6875 0.828125 C 1.695312 0.753906 1.734375 0.71875 1.796875 0.71875 C 1.816406 0.71875 1.835938 0.722656 1.859375 0.734375 C 1.910156 0.742188 1.941406 0.75 1.953125 0.75 C 2.078125 0.75 2.15625 0.695312 2.1875 0.59375 C 2.226562 0.445312 2.109375 0.265625 1.828125 0.046875 L 1.765625 0.015625 C 1.441406 -0.0546875 1.160156 -0.191406 0.921875 -0.390625 C 0.679688 -0.597656 0.503906 -0.859375 0.390625 -1.171875 C 0.285156 -1.421875 0.234375 -1.726562 0.234375 -2.09375 C 0.234375 -2.445312 0.285156 -2.753906 0.390625 -3.015625 C 0.523438 -3.378906 0.753906 -3.664062 1.078125 -3.875 C 1.410156 -4.09375 1.796875 -4.203125 2.234375 -4.203125 C 2.679688 -4.203125 3.070312 -4.09375 3.40625 -3.875 C 3.738281 -3.65625 3.96875 -3.378906 4.09375 -3.046875 C 4.125 -2.953125 4.144531 -2.863281 4.15625 -2.78125 L 4.15625 -2.75 C 4.15625 -2.675781 4.113281 -2.628906 4.03125 -2.609375 L 3.015625 -2.46875 L 2.96875 -2.453125 C 2.894531 -2.453125 2.851562 -2.484375 2.84375 -2.546875 L 2.8125 -2.65625 C 2.78125 -2.78125 2.710938 -2.878906 2.609375 -2.953125 C 2.503906 -3.023438 2.378906 -3.0625 2.234375 -3.0625 Z M 2.234375 -3.0625 "/></g></g></g><g fill="#d9d9d9" fill-opacity="1"><g transform="translate(251.805172, 264.320957)"><g><path d="M 2.078125 -4.203125 C 2.421875 -4.203125 2.738281 -4.140625 3.03125 -4.015625 C 3.320312 -3.898438 3.546875 -3.734375 3.703125 -3.515625 C 3.867188 -3.304688 3.953125 -3.078125 3.953125 -2.828125 L 3.953125 -0.140625 C 3.953125 -0.0976562 3.9375 -0.0625 3.90625 -0.03125 C 3.882812 -0.0078125 3.851562 0 3.8125 0 L 2.78125 0 C 2.738281 0 2.703125 -0.0078125 2.671875 -0.03125 C 2.640625 -0.0625 2.625 -0.0976562 2.625 -0.140625 L 2.625 -0.296875 C 2.625 -0.328125 2.617188 -0.34375 2.609375 -0.34375 C 2.597656 -0.351562 2.582031 -0.347656 2.5625 -0.328125 C 2.351562 -0.0664062 2.007812 0.0625 1.53125 0.0625 C 1.113281 0.0625 0.78125 -0.0351562 0.53125 -0.234375 C 0.28125 -0.429688 0.15625 -0.726562 0.15625 -1.125 C 0.15625 -1.53125 0.296875 -1.84375 0.578125 -2.0625 C 0.867188 -2.289062 1.28125 -2.40625 1.8125 -2.40625 L 2.578125 -2.40625 C 2.609375 -2.40625 2.625 -2.425781 2.625 -2.46875 L 2.625 -2.59375 C 2.625 -2.738281 2.578125 -2.851562 2.484375 -2.9375 C 2.398438 -3.019531 2.269531 -3.0625 2.09375 -3.0625 C 1.96875 -3.0625 1.859375 -3.039062 1.765625 -3 C 1.679688 -2.957031 1.625 -2.90625 1.59375 -2.84375 C 1.5625 -2.800781 1.535156 -2.769531 1.515625 -2.75 C 1.492188 -2.738281 1.460938 -2.734375 1.421875 -2.734375 L 0.359375 -2.875 C 0.253906 -2.882812 0.207031 -2.921875 0.21875 -2.984375 C 0.25 -3.210938 0.347656 -3.414062 0.515625 -3.59375 C 0.679688 -3.78125 0.894531 -3.925781 1.15625 -4.03125 C 1.425781 -4.144531 1.734375 -4.203125 2.078125 -4.203125 Z M 1.9375 -0.890625 C 2.132812 -0.890625 2.296875 -0.941406 2.421875 -1.046875 C 2.554688 -1.148438 2.625 -1.285156 2.625 -1.453125 L 2.625 -1.625 C 2.625 -1.664062 2.609375 -1.6875 2.578125 -1.6875 L 2.109375 -1.6875 C 1.910156 -1.6875 1.753906 -1.648438 1.640625 -1.578125 C 1.535156 -1.515625 1.484375 -1.410156 1.484375 -1.265625 C 1.484375 -1.148438 1.519531 -1.054688 1.59375 -0.984375 C 1.675781 -0.921875 1.789062 -0.890625 1.9375 -0.890625 Z M 3 -4.546875 C 2.894531 -4.546875 2.800781 -4.5625 2.71875 -4.59375 C 2.632812 -4.625 2.546875 -4.671875 2.453125 -4.734375 C 2.378906 -4.785156 2.320312 -4.816406 2.28125 -4.828125 C 2.238281 -4.847656 2.195312 -4.859375 2.15625 -4.859375 C 2.039062 -4.859375 1.953125 -4.820312 1.890625 -4.75 C 1.859375 -4.695312 1.820312 -4.671875 1.78125 -4.671875 C 1.75 -4.671875 1.722656 -4.679688 1.703125 -4.703125 L 1.359375 -4.9375 C 1.285156 -5 1.265625 -5.066406 1.296875 -5.140625 C 1.367188 -5.328125 1.472656 -5.46875 1.609375 -5.5625 C 1.742188 -5.664062 1.894531 -5.71875 2.0625 -5.71875 C 2.15625 -5.71875 2.238281 -5.703125 2.3125 -5.671875 C 2.382812 -5.640625 2.476562 -5.585938 2.59375 -5.515625 C 2.65625 -5.484375 2.71875 -5.453125 2.78125 -5.421875 C 2.84375 -5.398438 2.90625 -5.390625 2.96875 -5.390625 C 3.070312 -5.390625 3.148438 -5.425781 3.203125 -5.5 C 3.242188 -5.550781 3.285156 -5.578125 3.328125 -5.578125 C 3.359375 -5.578125 3.382812 -5.566406 3.40625 -5.546875 L 3.75 -5.3125 C 3.789062 -5.28125 3.8125 -5.238281 3.8125 -5.1875 C 3.8125 -5.15625 3.796875 -5.109375 3.765625 -5.046875 C 3.671875 -4.878906 3.550781 -4.753906 3.40625 -4.671875 C 3.269531 -4.585938 3.132812 -4.546875 3 -4.546875 Z M 3 -4.546875 "/></g></g></g><g fill="#d9d9d9" fill-opacity="1"><g transform="translate(257.885275, 264.320957)"><g><path d="M 2.234375 0.0625 C 1.753906 0.0625 1.347656 -0.0625 1.015625 -0.3125 C 0.679688 -0.570312 0.457031 -0.921875 0.34375 -1.359375 C 0.269531 -1.578125 0.234375 -1.816406 0.234375 -2.078125 C 0.234375 -2.347656 0.269531 -2.609375 0.34375 -2.859375 C 0.46875 -3.273438 0.695312 -3.601562 1.03125 -3.84375 C 1.363281 -4.082031 1.765625 -4.203125 2.234375 -4.203125 C 2.703125 -4.203125 3.097656 -4.082031 3.421875 -3.84375 C 3.753906 -3.601562 3.984375 -3.273438 4.109375 -2.859375 C 4.179688 -2.617188 4.21875 -2.363281 4.21875 -2.09375 C 4.21875 -1.851562 4.191406 -1.617188 4.140625 -1.390625 C 4.023438 -0.941406 3.796875 -0.585938 3.453125 -0.328125 C 3.117188 -0.0664062 2.710938 0.0625 2.234375 0.0625 Z M 2.234375 -1.078125 C 2.390625 -1.078125 2.519531 -1.125 2.625 -1.21875 C 2.726562 -1.320312 2.800781 -1.457031 2.84375 -1.625 C 2.875 -1.757812 2.890625 -1.910156 2.890625 -2.078125 C 2.890625 -2.234375 2.867188 -2.390625 2.828125 -2.546875 C 2.785156 -2.710938 2.710938 -2.835938 2.609375 -2.921875 C 2.515625 -3.015625 2.390625 -3.0625 2.234375 -3.0625 C 2.066406 -3.0625 1.9375 -3.015625 1.84375 -2.921875 C 1.75 -2.835938 1.675781 -2.710938 1.625 -2.546875 C 1.59375 -2.429688 1.578125 -2.273438 1.578125 -2.078125 C 1.578125 -1.910156 1.59375 -1.757812 1.625 -1.625 C 1.675781 -1.457031 1.75 -1.320312 1.84375 -1.21875 C 1.945312 -1.125 2.078125 -1.078125 2.234375 -1.078125 Z M 2.234375 -1.078125 "/></g></g></g></svg>